<?xml version="1.0" encoding="utf-8"?>
<?xml-stylesheet type="text/xsl" href="rss1.xsl"?>
<rss version="2.0" xmlns:atom="http://www.w3.org/2005/Atom" xmlns:content="http://purl.org/rss/1.0/modules/content/" xmlns:dc="http://purl.org/dc/elements/1.1/" xmlns:media="http://search.yahoo.com/mrss/">
<channel>
 <title>Getty</title>
 <link>http://www.gettyimg.com/</link>
 <atom:link href="http://www.gettyimg.com/" rel="self" type="application/rss+xml" />

 
                <item>
                <title><![CDATA[【Cinema Center】MOVIE - Home.Alone.3.1997.1080p.DSNP.WEB-DL.DDP5.1.H.264-Samuel]]></title>
                <link><![CDATA[https://sharemania.us/threads/home-alone-3-1997-1080p-dsnp-web-dl-ddp5-1-h-264-samuel.234684/]]></link>
                <description><![CDATA[<article>
<blockquote class="messageText SelectQuoteContainer ugc baseHtml">
<div style="text-align: center"><b><span style="font-size: 26px">Home Alone 3</span></b><br>
<img src="https://i.imgur.com/n6ZMPCJ.png" class="bbCodeImage LbImage" alt="[​IMG]" data-url="https://i.imgur.com/n6ZMPCJ.png" style=""><br>
<b><a href="https://i.imgur.com/AzE4PO2.jpg" target="_blank" class="externalLink" rel="nofollow">Alternate Artwork 1</a></b> | <b><a href="https://i.imgur.com/TPHdchN.jpg" target="_blank" class="externalLink" rel="nofollow">Alternate Artwork 2</a></b> | <b><a href="https://i.imgur.com/RqW1yes.png" target="_blank" class="externalLink" rel="nofollow">Alternate Artwork 3</a></b> | <b><a href="https://i.imgur.com/KvX12BL.jpg" target="_blank" class="externalLink" rel="nofollow">Alternate Artwork 4</a></b> | <b><a href="https://i.imgur.com/RSfrDGD.jpg" target="_blank" class="externalLink" rel="nofollow">Alternate Artwork 5</a></b> | <b><a href="https://i.imgur.com/4J04qkQ.jpg" target="_blank" class="externalLink" rel="nofollow">Alternate Artwork 6</a></b> | <b><a href="https://i.imgur.com/I7ux15x.png" target="_blank" class="externalLink" rel="nofollow">Alternate Artwork 7</a></b> | <b><a href="https://i.imgur.com/9aGXGNt.jpg" target="_blank" class="externalLink" rel="nofollow">Alternate Artwork 8</a></b> | <b><a href="https://i.imgur.com/VdU5AJi.jpg" target="_blank" class="externalLink" rel="nofollow">Alternate Artwork 9</a></b> | <b><a href="https://i.imgur.com/k6eJs4b.jpg" target="_blank" class="externalLink" rel="nofollow">Alternate Artwork 10</a></b> | <b><a href="https://i.imgur.com/J5P3p0p.jpg" target="_blank" class="externalLink" rel="nofollow">Alternate Artwork 11</a></b> | <b><a href="https://i.imgur.com/A5CZ2pZ.jpg" target="_blank" class="externalLink" rel="nofollow">Alternate Artwork 12</a></b> | <b><a href="https://i.imgur.com/ND0mzZQ.jpg" target="_blank" class="externalLink" rel="nofollow">Alternate Artwork 13</a></b> | <b><a href="https://i.imgur.com/LZpvCS9.jpg" target="_blank" class="externalLink" rel="nofollow">Poster 1</a></b> | <b><a href="https://i.imgur.com/LqvPKy7.png" target="_blank" class="externalLink" rel="nofollow">Poster 2</a></b> | <b><a href="https://i.imgur.com/DQGHOh4.jpg" target="_blank" class="externalLink" rel="nofollow">Poster 3</a></b> | <b><a href="https://i.imgur.com/un7thXQ.png" target="_blank" class="externalLink" rel="nofollow">Poster 4</a></b> | <b><a href="https://i.imgur.com/mvevMEl.jpg" target="_blank" class="externalLink" rel="nofollow">Poster 5</a></b> | <b><a href="https://i.imgur.com/LrqMqCO.jpg" target="_blank" class="externalLink" rel="nofollow">Poster 6</a></b> | <b><a href="https://i.imgur.com/PoLYKrY.jpg" target="_blank" class="externalLink" rel="nofollow">Thumbnail 1</a></b> | <b><a href="https://i.imgur.com/k9FyWLl.jpg" target="_blank" class="externalLink" rel="nofollow">Thumbnail 2</a></b> | <b><a href="https://i.imgur.com/VreE2BU.jpg" target="_blank" class="externalLink" rel="nofollow">Key Art</a></b><br>
<br>
<img src="https://i.imgur.com/qhRKRmw.png" class="bbCodeImage LbImage" alt="[​IMG]" data-url="https://i.imgur.com/qhRKRmw.png" style=""> <img src="https://i.imgur.com/aNwcs8B.png" class="bbCodeImage LbImage" alt="[​IMG]" data-url="https://i.imgur.com/aNwcs8B.png" style=""><br>
1997 • 1h 42m<br>
Family, Comedy<br>
<br>
<div class="bbCodeBlock bbCodeQuote">
<aside>
<blockquote class="quoteContainer"><div class="quote"><b><span style="font-size: 15px"><span style="font-family: 'Arial'">Description</span></span></b><br>
When a gang of criminals steals a top-secret computer chip that they hide inside a toy car, they come up against eight year-old Alex Pruitt, who is home alone with the chicken pox.</div><div class="quoteExpand">Click to expand...</div></blockquote>
</aside>
</div>
<div class="bbCodeBlock bbCodeQuote">
<aside>
<blockquote class="quoteContainer"><div class="quote"><b><span style="font-size: 15px"><span style="font-family: 'Arial'">Trailers</span></span></b><br>
<span data-s9e-mediaembed="googledrive" style="display:inline-block;width:100%;max-width:640px"><span style="display:block;overflow:hidden;position:relative;padding-bottom:75%"><iframe allowfullscreen="" loading="lazy" scrolling="no" src="//drive.google.com/file/d/14ogTnuwOpdZhukWlAwLnhoaNcBP8pu41/preview" style="border:0;height:100%;left:0;position:absolute;width:100%"></iframe></span></span><br>
<b>Home Alone 3 Trailer</b></div><div class="quoteExpand quoteCut">Click to expand...</div></blockquote>
</aside>
</div>
<div class="bbCodeBlock bbCodeQuote">
<aside>
<blockquote class="quoteContainer"><div class="quote"><b><span style="font-size: 15px"><span style="font-family: 'Arial'">More Information</span></span></b><br>
<b>Long Description:</b><br>
In the third riotous installment of the hit series, a group of spies hides a computer chip in a toy car that winds up in the hands of eight-year-old Alex. Home alone with the chicken pox, Alex sees the spies breaking into his neighbors’ houses in search of the car. And when they finally locate the car – and Alex – he’s got plenty of rigged devices and booby traps waiting for them!<br>
<b>Duration:</b> 1h 42m<br>
<b>Release Date:</b> 1997<br>
<b>Genre:</b> Family, Comedy<br>
<b>Rating:</b> <img src="https://i.imgur.com/qhRKRmw.png" class="bbCodeImage LbImage" alt="[​IMG]" data-url="https://i.imgur.com/qhRKRmw.png" style=""><br>
<b>Director:</b> Raja Gosnell<br>
<b>Starring:</b> Alex D. Linz, Olek Krupa, Haviland Morris, David Thornton, Scarlett Johansson, Lenny Von Dohlen</div><div class="quoteExpand quoteCut">Click to expand...</div></blockquote>
</aside>
</div>
<div class="bbCodeBlock bbCodeQuote">
<aside>
<blockquote class="quoteContainer"><div class="quote"><b><span style="font-size: 15px">Source</span></b><br>
<img src="https://i.imgur.com/zIQLtMk.png" class="bbCodeImage LbImage" alt="[​IMG]" data-url="https://i.imgur.com/zIQLtMk.png" style=""></div><div class="quoteExpand">Click to expand...</div></blockquote>
</aside>
</div>
<div class="bbCodeBlock bbCodeQuote">
<aside>
<blockquote class="quoteContainer"><div class="quote"><b><span style="font-size: 15px">Release Name</span></b><br>
Home.Alone.3.1997.1080p.DSNP.WEB-DL.DDP5.1.H.264-Samuel</div><div class="quoteExpand">Click to expand...</div></blockquote>
</aside>
</div>
<div class="ToggleTriggerAnchor bbCodeSpoilerContainer">
<button type="button" class="button bbCodeSpoilerButton ToggleTrigger Tooltip JsOnly" data-target="> .SpoilerTarget"><span>Spoiler: <span class="SpoilerTitle">Media Information</span></span></button>
<div class="SpoilerTarget bbCodeSpoilerText">General<br>
Complete name : Home.Alone.3.1997.1080p.DSNP.WEB-DL.DDP5.1.H.264-Samuel.mkv<br>
Format : Matroska<br>
Format version : Version 4<br>
File size : 6.54 GiB<br>
Duration : 1 h 42 min<br>
Overall bit rate mode : Variable<br>
Overall bit rate : 9 140 kb/s<br>
Frame rate : 23.976 FPS<br>
Encoded date : 2023-12-25 11:53:56 UTC<br>
Writing application : mkvmerge v72.0.0 ('Minuano (Six-eight)') 64-bit<br>
Writing library : libebml v1.4.4 + libmatroska v1.7.1<br>
<br>
Video<br>
ID : 1<br>
Format : AVC<br>
Format/Info : Advanced Video Codec<br>
Format profile : High@L4<br>
Format settings : CABAC / 4 Ref Frames<br>
Format settings, CABAC : Yes<br>
Format settings, Reference frames : 4 frames<br>
Codec ID : V_MPEG4/ISO/AVC<br>
Duration : 1 h 42 min<br>
Bit rate mode : Variable<br>
Bit rate : 7 233 kb/s<br>
Maximum bit rate : 12.7 Mb/s<br>
Width : 1 920 pixels<br>
Height : 1 080 pixels<br>
Display aspect ratio : 16:9<br>
Frame rate mode : Constant<br>
Frame rate : 23.976 (24000/1001) FPS<br>
Color space : YUV<br>
Chroma subsampling : 4:2:0<br>
Bit depth : 8 bits<br>
Scan type : Progressive<br>
Bits/(Pixel*Frame) : 0.145<br>
Time code of first frame : 00:00:00;00<br>
Stream size : 5.17 GiB (79%)<br>
Default : Yes<br>
Forced : No<br>
Color range : Limited<br>
Color primaries : BT.709<br>
Transfer characteristics : BT.709<br>
Matrix coefficients : BT.709<br>
<br>
Audio #1<br>
ID : 2<br>
Format : E-AC-3<br>
Format/Info : Enhanced AC-3<br>
Commercial name : Dolby Digital Plus<br>
Codec ID : A_EAC3<br>
Duration : 1 h 42 min<br>
Bit rate mode : Constant<br>
Bit rate : 256 kb/s<br>
Channel(s) : 6 channels<br>
Channel layout : L R C LFE Ls Rs<br>
Sampling rate : 48.0 kHz<br>
Frame rate : 31.250 FPS (1536 SPF)<br>
Compression mode : Lossy<br>
Stream size : 187 MiB (3%)<br>
Language : English<br>
Service kind : Complete Main<br>
Default : Yes<br>
Forced : No<br>
<br>
Audio #2<br>
ID : 3<br>
Format : E-AC-3<br>
Format/Info : Enhanced AC-3<br>
Commercial name : Dolby Digital Plus<br>
Codec ID : A_EAC3<br>
Duration : 1 h 42 min<br>
Bit rate mode : Constant<br>
Bit rate : 256 kb/s<br>
Channel(s) : 6 channels<br>
Channel layout : L R C LFE Ls Rs<br>
Sampling rate : 48.0 kHz<br>
Frame rate : 31.250 FPS (1536 SPF)<br>
Compression mode : Lossy<br>
Stream size : 187 MiB (3%)<br>
Language : German<br>
Service kind : Complete Main<br>
Default : No<br>
Forced : No<br>
<br>
Audio #3<br>
ID : 4<br>
Format : AAC LC<br>
Format/Info : Advanced Audio Codec Low Complexity<br>
Codec ID : A_AAC-2<br>
Duration : 1 h 42 min<br>
Bit rate : 125 kb/s<br>
Channel(s) : 2 channels<br>
Channel layout : L R<br>
Sampling rate : 48.0 kHz<br>
Frame rate : 46.875 FPS (1024 SPF)<br>
Compression mode : Lossy<br>
Stream size : 91.8 MiB (1%)<br>
Title : Latin American<br>
Language : Spanish<br>
Default : No<br>
Forced : No<br>
<br>
Audio #4<br>
ID : 5<br>
Format : AAC LC<br>
Format/Info : Advanced Audio Codec Low Complexity<br>
Codec ID : A_AAC-2<br>
Duration : 1 h 42 min<br>
Bit rate : 125 kb/s<br>
Channel(s) : 2 channels<br>
Channel layout : L R<br>
Sampling rate : 48.0 kHz<br>
Frame rate : 46.875 FPS (1024 SPF)<br>
Compression mode : Lossy<br>
Stream size : 91.8 MiB (1%)<br>
Title : European<br>
Language : Spanish<br>
Default : No<br>
Forced : No<br>
<br>
Audio #5<br>
ID : 6<br>
Format : AAC LC<br>
Format/Info : Advanced Audio Codec Low Complexity<br>
Codec ID : A_AAC-2<br>
Duration : 1 h 42 min<br>
Bit rate : 125 kb/s<br>
Channel(s) : 2 channels<br>
Channel layout : L R<br>
Sampling rate : 48.0 kHz<br>
Frame rate : 46.875 FPS (1024 SPF)<br>
Compression mode : Lossy<br>
Stream size : 91.8 MiB (1%)<br>
Language : French<br>
Default : No<br>
Forced : No<br>
<br>
Audio #6<br>
ID : 7<br>
Format : AAC LC<br>
Format/Info : Advanced Audio Codec Low Complexity<br>
Codec ID : A_AAC-2<br>
Duration : 1 h 42 min<br>
Bit rate : 125 kb/s<br>
Channel(s) : 2 channels<br>
Channel layout : L R<br>
Sampling rate : 48.0 kHz<br>
Frame rate : 46.875 FPS (1024 SPF)<br>
Compression mode : Lossy<br>
Stream size : 91.8 MiB (1%)<br>
Language : Hungarian<br>
Default : No<br>
Forced : No<br>
<br>
Audio #7<br>
ID : 8<br>
Format : AAC LC<br>
Format/Info : Advanced Audio Codec Low Complexity<br>
Codec ID : A_AAC-2<br>
Duration : 1 h 42 min<br>
Bit rate : 125 kb/s<br>
Channel(s) : 2 channels<br>
Channel layout : L R<br>
Sampling rate : 48.0 kHz<br>
Frame rate : 46.875 FPS (1024 SPF)<br>
Compression mode : Lossy<br>
Stream size : 91.8 MiB (1%)<br>
Language : Italian<br>
Default : No<br>
Forced : No<br>
<br>
Audio #8<br>
ID : 9<br>
Format : AAC LC<br>
Format/Info : Advanced Audio Codec Low Complexity<br>
Codec ID : A_AAC-2<br>
Duration : 1 h 42 min<br>
Bit rate : 125 kb/s<br>
Channel(s) : 2 channels<br>
Channel layout : L R<br>
Sampling rate : 48.0 kHz<br>
Frame rate : 46.875 FPS (1024 SPF)<br>
Compression mode : Lossy<br>
Stream size : 91.8 MiB (1%)<br>
Language : Japanese<br>
Default : No<br>
Forced : No<br>
<br>
Audio #9<br>
ID : 10<br>
Format : AAC LC<br>
Format/Info : Advanced Audio Codec Low Complexity<br>
Codec ID : A_AAC-2<br>
Duration : 1 h 42 min<br>
Bit rate : 125 kb/s<br>
Channel(s) : 2 channels<br>
Channel layout : L R<br>
Sampling rate : 48.0 kHz<br>
Frame rate : 46.875 FPS (1024 SPF)<br>
Compression mode : Lossy<br>
Stream size : 91.8 MiB (1%)<br>
Language : Korean<br>
Default : No<br>
Forced : No<br>
<br>
Audio #10<br>
ID : 11<br>
Format : AAC LC<br>
Format/Info : Advanced Audio Codec Low Complexity<br>
Codec ID : A_AAC-2<br>
Duration : 1 h 42 min<br>
Bit rate : 125 kb/s<br>
Channel(s) : 2 channels<br>
Channel layout : L R<br>
Sampling rate : 48.0 kHz<br>
Frame rate : 46.875 FPS (1024 SPF)<br>
Compression mode : Lossy<br>
Stream size : 91.8 MiB (1%)<br>
Language : Polish<br>
Default : No<br>
Forced : No<br>
<br>
Audio #11<br>
ID : 12<br>
Format : E-AC-3<br>
Format/Info : Enhanced AC-3<br>
Commercial name : Dolby Digital Plus<br>
Codec ID : A_EAC3<br>
Duration : 1 h 42 min<br>
Bit rate mode : Constant<br>
Bit rate : 256 kb/s<br>
Channel(s) : 6 channels<br>
Channel layout : L R C LFE Ls Rs<br>
Sampling rate : 48.0 kHz<br>
Frame rate : 31.250 FPS (1536 SPF)<br>
Compression mode : Lossy<br>
Stream size : 187 MiB (3%)<br>
Title : Brazilian<br>
Language : Portuguese<br>
Service kind : Complete Main<br>
Default : No<br>
Forced : No<br>
<br>
Audio #12<br>
ID : 13<br>
Format : AAC LC<br>
Format/Info : Advanced Audio Codec Low Complexity<br>
Codec ID : A_AAC-2<br>
Duration : 1 h 42 min<br>
Bit rate : 125 kb/s<br>
Channel(s) : 2 channels<br>
Channel layout : L R<br>
Sampling rate : 48.0 kHz<br>
Frame rate : 46.875 FPS (1024 SPF)<br>
Compression mode : Lossy<br>
Stream size : 91.8 MiB (1%)<br>
Language : Turkish<br>
Default : No<br>
Forced : No<br>
<br>
Text #1<br>
ID : 14<br>
Format : UTF-8<br>
Codec ID : S_TEXT/UTF8<br>
Codec ID/Info : UTF-8 Plain Text<br>
Duration : 1 h 37 min<br>
Bit rate : 58 b/s<br>
Frame rate : 0.231 FPS<br>
Count of elements : 1358<br>
Stream size : 41.7 KiB (0%)<br>
Title : SDH<br>
Language : English<br>
Default : No<br>
Forced : No<br>
<br>
Text #2<br>
ID : 15<br>
Format : UTF-8<br>
Codec ID : S_TEXT/UTF8<br>
Codec ID/Info : UTF-8 Plain Text<br>
Duration : 1 h 41 min<br>
Bit rate : 26 b/s<br>
Frame rate : 0.099 FPS<br>
Count of elements : 604<br>
Stream size : 20.0 KiB (0%)<br>
Language : Danish<br>
Default : No<br>
Forced : No<br>
<br>
Text #3<br>
ID : 16<br>
Format : UTF-8<br>
Codec ID : S_TEXT/UTF8<br>
Codec ID/Info : UTF-8 Plain Text<br>
Duration : 1 h 26 min<br>
Bit rate : 0 b/s<br>
Frame rate : 0.006 FPS<br>
Count of elements : 31<br>
Stream size : 613 Bytes (0%)<br>
Title : Forced<br>
Language : German<br>
Default : No<br>
Forced : Yes<br>
<br>
Text #4<br>
ID : 17<br>
Format : UTF-8<br>
Codec ID : S_TEXT/UTF8<br>
Codec ID/Info : UTF-8 Plain Text<br>
Duration : 1 h 35 min<br>
Bit rate : 40 b/s<br>
Frame rate : 0.146 FPS<br>
Count of elements : 840<br>
Stream size : 28.6 KiB (0%)<br>
Language : German<br>
Default : No<br>
Forced : No<br>
<br>
Text #5<br>
ID : 18<br>
Format : UTF-8<br>
Codec ID : S_TEXT/UTF8<br>
Codec ID/Info : UTF-8 Plain Text<br>
Duration : 1 h 41 min<br>
Bit rate : 51 b/s<br>
Frame rate : 0.137 FPS<br>
Count of elements : 837<br>
Stream size : 38.4 KiB (0%)<br>
Language : Greek<br>
Default : No<br>
Forced : No<br>
<br>
Text #6<br>
ID : 19<br>
Format : UTF-8<br>
Codec ID : S_TEXT/UTF8<br>
Codec ID/Info : UTF-8 Plain Text<br>
Duration : 1 h 40 min<br>
Bit rate : 0 b/s<br>
Frame rate : 0.002 FPS<br>
Count of elements : 11<br>
Stream size : 365 Bytes (0%)<br>
Title : Latin American (Forced)<br>
Language : Spanish<br>
Default : No<br>
Forced : Yes<br>
<br>
Text #7<br>
ID : 20<br>
Format : UTF-8<br>
Codec ID : S_TEXT/UTF8<br>
Codec ID/Info : UTF-8 Plain Text<br>
Duration : 1 h 41 min<br>
Bit rate : 30 b/s<br>
Frame rate : 0.139 FPS<br>
Count of elements : 848<br>
Stream size : 22.5 KiB (0%)<br>
Title : Latin American<br>
Language : Spanish<br>
Default : No<br>
Forced : No<br>
<br>
Text #8<br>
ID : 21<br>
Format : UTF-8<br>
Codec ID : S_TEXT/UTF8<br>
Codec ID/Info : UTF-8 Plain Text<br>
Duration : 1 h 41 min<br>
Bit rate : 0 b/s<br>
Frame rate : 0.004 FPS<br>
Count of elements : 22<br>
Stream size : 424 Bytes (0%)<br>
Title : European (Forced)<br>
Language : Spanish<br>
Default : No<br>
Forced : Yes<br>
<br>
Text #9<br>
ID : 22<br>
Format : UTF-8<br>
Codec ID : S_TEXT/UTF8<br>
Codec ID/Info : UTF-8 Plain Text<br>
Duration : 1 h 41 min<br>
Bit rate : 28 b/s<br>
Frame rate : 0.138 FPS<br>
Count of elements : 844<br>
Stream size : 21.0 KiB (0%)<br>
Title : European<br>
Language : Spanish<br>
Default : No<br>
Forced : No<br>
<br>
Text #10<br>
ID : 23<br>
Format : UTF-8<br>
Codec ID : S_TEXT/UTF8<br>
Codec ID/Info : UTF-8 Plain Text<br>
Duration : 1 h 35 min<br>
Bit rate : 30 b/s<br>
Frame rate : 0.107 FPS<br>
Count of elements : 617<br>
Stream size : 21.1 KiB (0%)<br>
Language : Finnish<br>
Default : No<br>
Forced : No<br>
<br>
Text #11<br>
ID : 24<br>
Format : UTF-8<br>
Codec ID : S_TEXT/UTF8<br>
Codec ID/Info : UTF-8 Plain Text<br>
Duration : 1 h 41 min<br>
Bit rate : 0 b/s<br>
Frame rate : 0.003 FPS<br>
Count of elements : 16<br>
Stream size : 377 Bytes (0%)<br>
Title : Forced<br>
Language : French<br>
Default : No<br>
Forced : Yes<br>
<br>
Text #12<br>
ID : 25<br>
Format : UTF-8<br>
Codec ID : S_TEXT/UTF8<br>
Codec ID/Info : UTF-8 Plain Text<br>
Duration : 1 h 41 min<br>
Bit rate : 32 b/s<br>
Frame rate : 0.140 FPS<br>
Count of elements : 855<br>
Stream size : 24.5 KiB (0%)<br>
Language : French<br>
Default : No<br>
Forced : No<br>
<br>
Text #13<br>
ID : 26<br>
Format : UTF-8<br>
Codec ID : S_TEXT/UTF8<br>
Codec ID/Info : UTF-8 Plain Text<br>
Duration : 1 h 41 min<br>
Bit rate : 26 b/s<br>
Frame rate : 0.138 FPS<br>
Count of elements : 838<br>
Stream size : 19.6 KiB (0%)<br>
Language : Hungarian<br>
Default : No<br>
Forced : No<br>
<br>
Text #14<br>
ID : 27<br>
Format : UTF-8<br>
Codec ID : S_TEXT/UTF8<br>
Codec ID/Info : UTF-8 Plain Text<br>
Duration : 1 h 41 min<br>
Bit rate : 0 b/s<br>
Frame rate : 0.003 FPS<br>
Count of elements : 18<br>
Stream size : 401 Bytes (0%)<br>
Title : Forced<br>
Language : Italian<br>
Default : No<br>
Forced : Yes<br>
<br>
Text #15<br>
ID : 28<br>
Format : UTF-8<br>
Codec ID : S_TEXT/UTF8<br>
Codec ID/Info : UTF-8 Plain Text<br>
Duration : 1 h 41 min<br>
Bit rate : 36 b/s<br>
Frame rate : 0.139 FPS<br>
Count of elements : 848<br>
Stream size : 27.2 KiB (0%)<br>
Language : Italian<br>
Default : No<br>
Forced : No<br>
<br>
Text #16<br>
ID : 29<br>
Format : UTF-8<br>
Codec ID : S_TEXT/UTF8<br>
Codec ID/Info : UTF-8 Plain Text<br>
Duration : 1 h 26 min<br>
Bit rate : 0 b/s<br>
Frame rate : 0.003 FPS<br>
Count of elements : 18<br>
Stream size : 461 Bytes (0%)<br>
Title : Forced<br>
Language : Japanese<br>
Default : No<br>
Forced : Yes<br>
<br>
Text #17<br>
ID : 30<br>
Format : UTF-8<br>
Codec ID : S_TEXT/UTF8<br>
Codec ID/Info : UTF-8 Plain Text<br>
Duration : 1 h 35 min<br>
Bit rate : 30 b/s<br>
Frame rate : 0.144 FPS<br>
Count of elements : 828<br>
Stream size : 21.1 KiB (0%)<br>
Language : Japanese<br>
Default : No<br>
Forced : No<br>
<br>
Text #18<br>
ID : 31<br>
Format : UTF-8<br>
Codec ID : S_TEXT/UTF8<br>
Codec ID/Info : UTF-8 Plain Text<br>
Duration : 1 h 35 min<br>
Bit rate : 33 b/s<br>
Frame rate : 0.147 FPS<br>
Count of elements : 842<br>
Stream size : 23.2 KiB (0%)<br>
Language : Korean<br>
Default : No<br>
Forced : No<br>
<br>
Text #19<br>
ID : 32<br>
Format : UTF-8<br>
Codec ID : S_TEXT/UTF8<br>
Codec ID/Info : UTF-8 Plain Text<br>
Duration : 1 h 41 min<br>
Bit rate : 31 b/s<br>
Frame rate : 0.101 FPS<br>
Count of elements : 613<br>
Stream size : 23.1 KiB (0%)<br>
Language : Dutch<br>
Default : No<br>
Forced : No<br>
<br>
Text #20<br>
ID : 33<br>
Format : UTF-8<br>
Codec ID : S_TEXT/UTF8<br>
Codec ID/Info : UTF-8 Plain Text<br>
Duration : 1 h 35 min<br>
Bit rate : 29 b/s<br>
Frame rate : 0.108 FPS<br>
Count of elements : 623<br>
Stream size : 20.5 KiB (0%)<br>
Language : Norwegian<br>
Default : No<br>
Forced : No<br>
<br>
Text #21<br>
ID : 34<br>
Format : UTF-8<br>
Codec ID : S_TEXT/UTF8<br>
Codec ID/Info : UTF-8 Plain Text<br>
Duration : 1 h 41 min<br>
Bit rate : 29 b/s<br>
Frame rate : 0.139 FPS<br>
Count of elements : 850<br>
Stream size : 21.8 KiB (0%)<br>
Language : Polish<br>
Default : No<br>
Forced : No<br>
<br>
Text #22<br>
ID : 35<br>
Format : UTF-8<br>
Codec ID : S_TEXT/UTF8<br>
Codec ID/Info : UTF-8 Plain Text<br>
Duration : 1 h 35 min<br>
Bit rate : 33 b/s<br>
Frame rate : 0.148 FPS<br>
Count of elements : 852<br>
Stream size : 23.8 KiB (0%)<br>
Title : Brazilian<br>
Language : Portuguese<br>
Default : No<br>
Forced : No<br>
<br>
Text #23<br>
ID : 36<br>
Format : UTF-8<br>
Codec ID : S_TEXT/UTF8<br>
Codec ID/Info : UTF-8 Plain Text<br>
Duration : 1 h 35 min<br>
Bit rate : 39 b/s<br>
Frame rate : 0.147 FPS<br>
Count of elements : 840<br>
Stream size : 27.5 KiB (0%)<br>
Title : European<br>
Language : Portuguese<br>
Default : No<br>
Forced : No<br>
<br>
Text #24<br>
ID : 37<br>
Format : UTF-8<br>
Codec ID : S_TEXT/UTF8<br>
Codec ID/Info : UTF-8 Plain Text<br>
Duration : 1 h 41 min<br>
Bit rate : 34 b/s<br>
Frame rate : 0.147 FPS<br>
Count of elements : 897<br>
Stream size : 26.0 KiB (0%)<br>
Language : Romanian<br>
Default : No<br>
Forced : No<br>
<br>
Text #25<br>
ID : 38<br>
Format : UTF-8<br>
Codec ID : S_TEXT/UTF8<br>
Codec ID/Info : UTF-8 Plain Text<br>
Duration : 1 h 35 min<br>
Bit rate : 28 b/s<br>
Frame rate : 0.105 FPS<br>
Count of elements : 605<br>
Stream size : 19.7 KiB (0%)<br>
Language : Swedish<br>
Default : No<br>
Forced : No<br>
<br>
Text #26<br>
ID : 39<br>
Format : UTF-8<br>
Codec ID : S_TEXT/UTF8<br>
Codec ID/Info : UTF-8 Plain Text<br>
Duration : 1 h 41 min<br>
Bit rate : 37 b/s<br>
Frame rate : 0.138 FPS<br>
Count of elements : 843<br>
Stream size : 27.7 KiB (0%)<br>
Language : Turkish<br>
Default : No<br>
Forced : No<br>
<br>
Text #27<br>
ID : 40<br>
Format : UTF-8<br>
Codec ID : S_TEXT/UTF8<br>
Codec ID/Info : UTF-8 Plain Text<br>
Duration : 1 h 35 min<br>
Bit rate : 24 b/s<br>
Frame rate : 0.165 FPS<br>
Count of elements : 947<br>
Stream size : 17.1 KiB (0%)<br>
Title : Simplified<br>
Language : Chinese<br>
Default : No<br>
Forced : No<br>
<br>
Text #28<br>
ID : 41<br>
Format : UTF-8<br>
Codec ID : S_TEXT/UTF8<br>
Codec ID/Info : UTF-8 Plain Text<br>
Duration : 1 h 35 min<br>
Bit rate : 30 b/s<br>
Frame rate : 0.146 FPS<br>
Count of elements : 839<br>
Stream size : 21.4 KiB (0%)<br>
Title : Traditional<br>
Language : Chinese<br>
Default : No<br>
Forced : No<br>
<br>
Menu<br>
00:00:23.357 : en:Intro<br>
00:02:24.019 : en:Scene 1<br>
00:08:32.012 : en:Scene 2<br>
00:20:52.461 : en:Scene 3<br>
00:35:16.742 : en:Scene 4<br>
00:47:21.425 : en:Scene 5<br>
00:55:39.506 : en:Scene 6<br>
01:04:39.963 : en:Scene 7<br>
01:19:46.954 : en:Scene 8<br>
01:31:03.046 : en:Scene 9<br>
01:36:40.717 : en:Credits</div>
</div><br>
<b>Screenshots</b><br>
<img src="https://i.imgur.com/SPBgkNt.png" class="bbCodeImage LbImage" alt="[​IMG]" data-url="https://i.imgur.com/SPBgkNt.png" style=""><br>
<br>
<b>Download</b><br>
<div class="bbCodeBlock bbCodeVfcHH HiddenContent">
<div class="attribution type">Hidden Content:</div>
<blockquote>You must reply before you can see the hidden data contained here.</blockquote>
</div></div>
<div class="messageTextEndMarker">&nbsp;</div>
</blockquote>
</article>]]></description>
                <author><![CDATA[Samuel]]></author>
                </item>

                
                <item>
                <title><![CDATA[【Bugs!】이달의 소녀 (LOONA) - Not Friends [Bugs!] [4K - H.264/AAC]]]></title>
                <link><![CDATA[https://sharemania.us/threads/%EC%9D%B4%EB%8B%AC%EC%9D%98-%EC%86%8C%EB%85%80-loona-not-friends-bugs-4k-h-264-aac.234683/]]></link>
                <description><![CDATA[<article>
<blockquote class="messageText SelectQuoteContainer ugc baseHtml">
<div style="text-align: center"><img src="https://i.imgur.com/UJ5GMNp.png" class="bbCodeImage LbImage" alt="[​IMG]" data-url="https://i.imgur.com/UJ5GMNp.png" style=""> <br>
<span style="font-size: 10px"><i>This is a re-upload :&gt;</i></span><br>
<span style="font-size: 10px"><i><b>MD5 Checksum: B8362E566B0FD1337CC43D009A5D788B</b></i></span><br>
​</div>
<div class="ToggleTriggerAnchor bbCodeSpoilerContainer">
<button type="button" class="button bbCodeSpoilerButton ToggleTrigger Tooltip JsOnly" data-target="> .SpoilerTarget"><span>Spoiler: <span class="SpoilerTitle">MediaInfo</span></span></button>
<div class="SpoilerTarget bbCodeSpoilerText">
<div class="bbCodeBlock bbCodeCode">
<div class="type">Code:</div>
<pre>Format                                   : MPEG-4
Format profile                           : Base Media / Version 2
Codec ID                                 : mp42 (isom/mp41/mp42)
File size                                : 1.28 GiB
Duration                                 : 3 min 43 s
Overall bit rate mode                    : Variable
Overall bit rate                         : 49.3 Mb/s
Movie name                               : EDIT  1-3 DI
Movie_More                               : This video is about EDIT  1-3 DI
Performer                                : Master
Encoded date                             : UTC 2021-09-03 08:23:56
Tagged date                              : UTC 2021-09-03 08:26:08
thmb                                     : ÿØÿà

Video
ID                                       : 2
Format                                   : AVC
Format/Info                              : Advanced Video Codec
Format profile                           : High@L5.1
Format settings                          : CABAC / 2 Ref Frames
Format settings, CABAC                   : Yes
Format settings, Reference frames        : 2 frames
Codec ID                                 : avc1
Codec ID/Info                            : Advanced Video Coding
Duration                                 : 3 min 43 s
Bit rate mode                            : Variable
Bit rate                                 : 49.1 Mb/s
Maximum bit rate                         : 768 kb/s
Width                                    : 3 840 pixels
Height                                   : 2 160 pixels
Display aspect ratio                     : 16:9
Frame rate mode                          : Constant
Frame rate                               : 23.976 (24000/1001) FPS
Color space                              : YUV
Chroma subsampling                       : 4:2:0
Bit depth                                : 8 bits
Scan type                                : Progressive
Bits/(Pixel*Frame)                       : 0.247
Stream size                              : 1.28 GiB (100%)
Title                                    : Core Media Video
Encoded date                             : UTC 2021-09-03 08:23:56
Tagged date                              : UTC 2021-09-03 08:26:08
Color range                              : Limited
Color primaries                          : BT.709
Transfer characteristics                 : BT.709
Matrix coefficients                      : BT.709
Codec configuration box                  : avcC

Audio
ID                                       : 1
Format                                   : AAC LC
Format/Info                              : Advanced Audio Codec Low Complexity
Codec ID                                 : mp4a-40-2
Duration                                 : 3 min 43 s
Source duration                          : 3 min 43 s
Bit rate mode                            : Constant
Bit rate                                 : 128 kb/s
Channel(s)                               : 2 channels
Channel layout                           : L R
Sampling rate                            : 48.0 kHz
Frame rate                               : 46.875 FPS (1024 SPF)
Compression mode                         : Lossy
Stream size                              : 3.45 MiB (0%)
Source stream size                       : 3.45 MiB (0%)
Title                                    : Core Media Audio
Language                                 : English
Encoded date                             : UTC 2021-09-03 08:23:56
Tagged date                              : UTC 2021-09-03 08:26:08</pre>
</div></div>
</div>
<div class="ToggleTriggerAnchor bbCodeSpoilerContainer">
<button type="button" class="button bbCodeSpoilerButton ToggleTrigger Tooltip JsOnly" data-target="> .SpoilerTarget"><span>Spoiler: <span class="SpoilerTitle">FFPROBE</span></span></button>
<div class="SpoilerTarget bbCodeSpoilerText">
<div class="bbCodeBlock bbCodeCode">
<div class="type">Code:</div>
<pre>  Metadata:
    major_brand     : mp42
    minor_version   : 1
    compatible_brands: isommp41mp42
    creation_time   : 2021-09-03T08:23:56.000000Z
  Duration: 00:03:43.72, start: 0.000000, bitrate: 49282 kb/s
  Stream #0:0[0x1](eng): Audio: aac (LC) (mp4a / 0x6134706D), 48000 Hz, stereo, fltp, 129 kb/s (default)
    Metadata:
      creation_time   : 2021-09-03T08:23:56.000000Z
      handler_name    : Core Media Audio
      vendor_id       : [0][0][0][0]
  Stream #0:1[0x2](und): Video: h264 (High) (avc1 / 0x31637661), yuv420p(tv, bt709, progressive), 3840x2160 [SAR 1:1 DAR 16:9], 49127 kb/s, 23.98 fps, 23.98 tbr, 24k tbn (default)
    Metadata:
      creation_time   : 2021-09-03T08:23:56.000000Z
      handler_name    : Core Media Video
      vendor_id       : [0][0][0][0]</pre>
</div></div>
</div><br>
<div style="text-align: center"><span data-s9e-mediaembed="youtube" style="display:inline-block;width:100%;max-width:640px"><span style="display:block;overflow:hidden;position:relative;padding-bottom:56.25%"><iframe allowfullscreen="" loading="lazy" scrolling="no" style="background:url(https://i.ytimg.com/vi/ZB90tpJastU/hqdefault.jpg) 50% 50% / cover;border:0;height:100%;left:0;position:absolute;width:100%" src="https://www.youtube.com/embed/ZB90tpJastU"></iframe></span></span><br>
<br>
<br>
<div class="bbCodeBlock bbCodeQuote">
<aside>
<blockquote class="quoteContainer"><div class="quote">hyung_z</div><div class="quoteExpand">Click to expand...</div></blockquote>
</aside>
</div>
<div class="bbCodeBlock bbCodeVfcHH HiddenContent">
<div class="attribution type">Hidden Content:</div>
<blockquote>You must either reply or click 'Like' to see the hidden information contained here.</blockquote>
</div></div>
<div class="messageTextEndMarker">&nbsp;</div>
</blockquote>
</article>]]></description>
                <author><![CDATA[hyung_z]]></author>
                </item>

                
                <item>
                <title><![CDATA[【Requests】[REQ AUD] - The Lightning Kids - FM (Remix Album)]]></title>
                <link><![CDATA[https://sharemania.us/threads/the-lightning-kids-fm-remix-album.234685/]]></link>
                <description><![CDATA[<article>
<blockquote class="messageText SelectQuoteContainer ugc baseHtml">
Thank you.
<div class="messageTextEndMarker">&nbsp;</div>
</blockquote>
</article>]]></description>
                <author><![CDATA[oekaki]]></author>
                </item>

                </channel></rss>